<?xml version="1.0" encoding="UTF-8"?>
<svg version="1.1" xmlns="http://www.w3.org/2000/svg" width="217" height="232">
<path d="M0 0 C0.99 0.33 1.98 0.66 3 1 C2.46890625 1.59425781 1.9378125 2.18851563 1.390625 2.80078125 C-6.54516468 12.11230089 -10.41786167 22.09151694 -10.2109375 34.3828125 C-9.32358606 45.3925433 -5.81817193 54.24496131 1.25 62.6875 C13.23019457 72.76175453 23.43888522 76.19089737 38.95947266 75.21142578 C51.14751085 73.94858287 59.54961747 67.30897794 67.2421875 58.2890625 C75.52067175 47.50863634 76.27513602 34.08285924 74.76416016 20.95019531 C74.52937978 19.29717525 74.2675382 17.64803533 74 16 C85.2193431 26.22940107 91.33600152 40.70016878 92.21875 55.72265625 C92.83701562 74.92607939 86.59193248 91.07616474 73.671875 105.23046875 C61.9749364 117.35492703 45.62914736 124.07477935 28.97265625 124.9609375 C10.15176206 125.14600037 -5.80405352 117.85920219 -19.375 105.125 C-32.00753731 91.66802342 -37.59865287 75.00265067 -37.1875 56.8671875 C-36.77501134 48.35960896 -34.89600142 39.63949033 -31 32 C-30.01 31.67 -29.02 31.34 -28 31 C-28.061875 32.051875 -28.12375 33.10375 -28.1875 34.1875 C-28.22052363 40.29687123 -26.50603532 46.11929067 -25 52 C-24.97873047 50.29457031 -24.97873047 50.29457031 -24.95703125 48.5546875 C-24.53329489 31.83983374 -20.67357328 18.19717296 -8.14453125 6.28515625 C-2.86482377 1.75869634 -2.86482377 1.75869634 0 0 Z " fill="#01A19A" transform="translate(78,53)"/>
<path d="M0 0 C0 0.99 0 1.98 0 3 C-0.56847656 3.21914063 -1.13695312 3.43828125 -1.72265625 3.6640625 C-9.79514355 6.9793077 -15.62829375 10.84331501 -19.22265625 19.00390625 C-22.71931527 27.98276434 -23.19910713 36.37235053 -20.09765625 45.546875 C-16.50545219 53.57500364 -11.05167382 58.64162296 -3 62 C4.84195369 64.87538302 13.16724502 64.79751118 21.03515625 61.87109375 C29.6907366 57.50163297 35.06839721 52.11295511 38.4375 43 C38.97680291 41.3392178 39.50446273 39.67436195 40 38 C40.66 38 41.32 38 42 38 C42.72892493 49.11610517 39.08061985 57.69751603 32.33984375 66.484375 C28.45022618 70.6662009 24.03452371 73.37816347 19 76 C18.06800781 76.53947266 18.06800781 76.53947266 17.1171875 77.08984375 C9.44729799 80.82160614 -1.38520552 80.16274217 -9.48828125 78.12109375 C-16.07286823 75.58598593 -21.12564824 72.06014544 -26 67 C-26.55429688 66.45472656 -27.10859375 65.90945312 -27.6796875 65.34765625 C-34.77709619 57.84417692 -37.3836159 47.94225951 -37.203125 37.8046875 C-36.36389065 26.21679777 -32.10681274 17.4232143 -23.3828125 9.67578125 C-16.45768333 4.36913127 -8.96806428 -0.38027128 0 0 Z " fill="#039D96" transform="translate(108,44)"/>
<path d="M0 0 C0.66 0 1.32 0 2 0 C2.54491983 9.79342032 2.14395705 17.07205108 -4.3125 24.75 C-5.199375 25.4925 -6.08625 26.235 -7 27 C-7.51433594 27.44214844 -8.02867187 27.88429688 -8.55859375 28.33984375 C-14.24786836 32.87286855 -20.27155492 34.3787244 -27.5 33.875 C-36.4862704 32.48408162 -43.49310367 28.30751639 -49 21 C-49 20.01 -49 19.02 -49 18 C-45 19.33333333 -41 20.66666667 -37 22 C-26.79095885 23.0361922 -18.04432951 20.43546361 -10 14 C-5.75551161 9.7372164 -2.35776113 5.54767324 0 0 Z " fill="#04A39D" transform="translate(144,71)"/>
<path d="M0 0 C0.99 0.33 1.98 0.66 3 1 C2.46890625 1.59425781 1.9378125 2.18851563 1.390625 2.80078125 C-6.55230649 12.12068079 -10.31905232 21.89038718 -10.234375 34.2109375 C-9.72956183 40.21821417 -8.30107609 46.12192408 -7 52 C-7.66 51.67 -8.32 51.34 -9 51 C-9 50.34 -9 49.68 -9 49 C-9.66 49 -10.32 49 -11 49 C-13.36591184 43.41719618 -13.26518066 38.26120312 -13.1875 32.3125 C-13.18685547 31.36310547 -13.18621094 30.41371094 -13.18554688 29.43554688 C-13.14087865 22.42263596 -13.14087865 22.42263596 -12 19 C-13.65 19.66 -15.3 20.32 -17 21 C-16.773125 21.763125 -16.54625 22.52625 -16.3125 23.3125 C-16.209375 24.199375 -16.10625 25.08625 -16 26 C-16.99592991 27.0040536 -17.99639256 28.0036205 -19 29 C-21.47537606 35.38487215 -21.24687222 42.32671626 -21.125 49.0625 C-21.11146484 50.50399414 -21.11146484 50.50399414 -21.09765625 51.97460938 C-21.07435208 54.31667805 -21.04164058 56.65819792 -21 59 C-26.75591836 53.26286115 -29.28393755 49.92028821 -31 42 C-34.68549361 51.5208585 -35.0160405 61.03269575 -33 71 C-32.93540958 72.76977761 -32.91388935 74.54170152 -32.9375 76.3125 C-32.94652344 77.19550781 -32.95554687 78.07851562 -32.96484375 78.98828125 C-32.97644531 79.65214844 -32.98804688 80.31601563 -33 81 C-38.95496298 72.06755553 -38.08260195 57.9304359 -36.25 47.6875 C-34.97652873 42.37685384 -33.48515836 36.87303294 -31 32 C-30.01 31.67 -29.02 31.34 -28 31 C-28.061875 32.051875 -28.12375 33.10375 -28.1875 34.1875 C-28.22052363 40.29687123 -26.50603532 46.11929067 -25 52 C-24.97873047 50.29457031 -24.97873047 50.29457031 -24.95703125 48.5546875 C-24.53329489 31.83983374 -20.67357328 18.19717296 -8.14453125 6.28515625 C-2.86482377 1.75869634 -2.86482377 1.75869634 0 0 Z " fill="#0B8D84" transform="translate(78,53)"/>
<path d="M0 0 C0.66 0 1.32 0 2 0 C1.938125 1.051875 1.87625 2.10375 1.8125 3.1875 C1.77947637 9.29687123 3.49396468 15.11929067 5 21 C5.04898438 19.73542969 5.09796875 18.47085938 5.1484375 17.16796875 C5.2234738 15.50779053 5.29902127 13.84763536 5.375 12.1875 C5.42140625 10.93743164 5.42140625 10.93743164 5.46875 9.66210938 C5.50742187 8.85966797 5.54609375 8.05722656 5.5859375 7.23046875 C5.6173584 6.49207764 5.6487793 5.75368652 5.68115234 4.99291992 C6 3 6 3 8 0 C7.99476318 0.63502441 7.98952637 1.27004883 7.98413086 1.92431641 C7.96323744 4.82453405 7.95030066 7.7247358 7.9375 10.625 C7.92912109 11.62402344 7.92074219 12.62304688 7.91210938 13.65234375 C7.8958913 18.55020275 7.95681463 23.18656199 9 28 C3.18490849 22.34207313 0.70589716 18.87337152 -1 11 C-4.68549361 20.5208585 -5.0160405 30.03269575 -3 40 C-2.93540958 41.76977761 -2.91388935 43.54170152 -2.9375 45.3125 C-2.94652344 46.19550781 -2.95554687 47.07851562 -2.96484375 47.98828125 C-2.97644531 48.65214844 -2.98804688 49.31601563 -3 50 C-8.95496298 41.06755553 -8.08260195 26.9304359 -6.25 16.6875 C-3.01879176 3.01879176 -3.01879176 3.01879176 0 0 Z " fill="#08746F" transform="translate(48,84)"/>
<path d="M0 0 C-0.515625 0.94875 -1.03125 1.8975 -1.5625 2.875 C-2.036875 3.90625 -2.51125 4.9375 -3 6 C-2.67 6.66 -2.34 7.32 -2 8 C-7.32084244 11.36053206 -11.89950776 11.60215215 -18 11 C-21.625 10 -21.625 10 -24 9 C-24 8.34 -24 7.68 -24 7 C-25.32 6.34 -26.64 5.68 -28 5 C-28 4.34 -28 3.68 -28 3 C-26.98679687 3.03480469 -25.97359375 3.06960937 -24.9296875 3.10546875 C-23.5781417 3.13362595 -22.22657781 3.16092403 -20.875 3.1875 C-20.20984375 3.21263672 -19.5446875 3.23777344 -18.859375 3.26367188 C-11.85602556 3.36666231 -7.09394573 -0.42563674 0 0 Z " fill="#03A49B" transform="translate(131,92)"/>
<path d="M0 0 C0.66 0.33 1.32 0.66 2 1 C2.625 4.0625 2.625 4.0625 3 7 C3.99 7.33 4.98 7.66 6 8 C7.28125 10.1796875 7.28125 10.1796875 8.5 12.875 C9.98321658 16.13617492 11.21096596 18.69665527 14 21 C16.10332891 21.71447643 16.10332891 21.71447643 18 22 C18 23.98 18 25.96 18 28 C19.98 28 21.96 28 24 28 C24 28.99 24 29.98 24 31 C24.66 31.33 25.32 31.66 26 32 C26 32.66 26 33.32 26 34 C29.465 34.495 29.465 34.495 33 35 C33.495 36.98 33.495 36.98 34 39 C18.01964522 34.51220349 7.89389961 20.13013996 0 6.5625 C-1.07269151 3.81372801 -1.13695883 2.68735724 0 0 Z " fill="#097B72" transform="translate(46,133)"/>
<path d="M0 0 C0 0.99 0 1.98 0 3 C-0.56847656 3.21914063 -1.13695313 3.43828125 -1.72265625 3.6640625 C-9.80167454 6.98198988 -15.61806992 10.84624567 -19.2265625 19.00390625 C-21.66106411 25.28688768 -22.49017198 31.33198614 -23 38 C-23.33 38 -23.66 38 -24 38 C-24.65040413 28.29813832 -22.80642737 20.17100374 -20 11 C-18.68 11 -17.36 11 -16 11 C-16 10.34 -16 9.68 -16 9 C-17.98 9.33 -19.96 9.66 -22 10 C-16.87261549 3.59076936 -8.25275893 -0.53096795 0 0 Z " fill="#07756E" transform="translate(108,44)"/>
<path d="M0 0 C4 1.33333333 8 2.66666667 12 4 C17.72662827 4.30565991 23.37844743 4.21547083 29 3 C26.94766315 5.2477975 25.99332739 6.0022242 23 7 C17.84298382 7.17190054 13.08317804 6.84719634 8 6 C8.99 6.928125 8.99 6.928125 10 7.875 C12 10 12 10 12 12 C18.81412465 13.43455256 25.72877934 14.29045529 32 11 C35.25 10.875 35.25 10.875 38 11 C34.62033257 14.86855014 30.95915865 15.41749565 26 16 C17.10284678 16.15287205 9.82356237 13.05372874 3.4375 6.9375 C0 3.44639376 0 3.44639376 0 0 Z " fill="#0C7B74" transform="translate(95,89)"/>
<path d="M0 0 C0.66 0 1.32 0 2 0 C2.62957522 9.60102204 0.12286649 18.44846466 -6 26 C-6.66 26 -7.32 26 -8 26 C-8.33 24.35 -8.66 22.7 -9 21 C-9.99 20.67 -10.98 20.34 -12 20 C-11.46890625 19.47792969 -10.9378125 18.95585938 -10.390625 18.41796875 C-4.94553657 12.74434559 -2.14384378 7.54576595 0 0 Z " fill="#0A8F86" transform="translate(148,82)"/>
<path d="M0 0 C0.66 0.33 1.32 0.66 2 1 C1.67386719 1.51949219 1.34773438 2.03898437 1.01171875 2.57421875 C-0.9203709 5.65758306 -2.84543322 8.736664 -4.6875 11.875 C-6 14 -6 14 -8 16 C-10.48139546 24.96059472 -11.34495801 33.52255142 -7.66796875 42.13671875 C-6.71852841 44.7851576 -6.79165752 47.22210025 -7 50 C-12.13090144 43.81992263 -13.59829294 35.49023612 -13.2734375 27.59375 C-12.08437694 16.31466125 -8.06494765 8.06494765 0 0 Z " fill="#0B7E77" transform="translate(84,54)"/>
<path d="M0 0 C3.56923315 -0.14276933 6.45135653 -0.1890221 9.85009766 0.98193359 C13.1367642 2.04420297 15.83039032 2.31179377 19.2734375 2.4140625 C20.42714844 2.45273438 21.58085938 2.49140625 22.76953125 2.53125 C23.95933594 2.5621875 25.14914063 2.593125 26.375 2.625 C27.58800781 2.66367188 28.80101563 2.70234375 30.05078125 2.7421875 C33.03370521 2.83613786 36.01662825 2.92180807 39 3 C39 2.01 39 1.02 39 0 C42.63 0 46.26 0 50 0 C44.37338172 5.62661828 34.36260344 5.63369438 26.8828125 6.00390625 C17.49657867 5.99446336 8.75366294 4.32035491 0 1 C0 0.67 0 0.34 0 0 Z " fill="#0A766F" transform="translate(80,172)"/>
<path d="M0 0 C0.66 0 1.32 0 2 0 C2.55353075 13.6332574 2.55353075 13.6332574 -1 20 C-2.43088528 17.13822943 -1.59991697 15.06624227 -1 12 C-2.98 12 -4.96 12 -7 12 C-6.20994338 10.56161448 -5.41788955 9.12432585 -4.625 7.6875 C-4.18414062 6.88699219 -3.74328125 6.08648437 -3.2890625 5.26171875 C-2.26486665 3.46472057 -1.14732862 1.72099292 0 0 Z " fill="#10938C" transform="translate(144,71)"/>
<path d="M0 0 C5.92424386 8.88636578 5.01883679 22.4403659 3.4296875 32.671875 C2.17570736 38.40058426 0.57398234 43.72946474 -2 49 C-2.33 49 -2.66 49 -3 49 C-3.125 43.25 -3.125 43.25 -2 41 C-1.34 41 -0.68 41 0 41 C3.06716974 27.32848257 3.06716974 27.32848257 1 14 C0.76970044 11.62876754 0.58880058 9.25258057 0.4375 6.875 C0.35371094 5.59367187 0.26992187 4.31234375 0.18359375 2.9921875 C0.12300781 2.00476563 0.06242188 1.01734375 0 0 Z " fill="#066863" transform="translate(166,92)"/>
<path d="M0 0 C0 0.99 0 1.98 0 3 C-0.60328125 3.26554687 -1.2065625 3.53109375 -1.828125 3.8046875 C-2.62734375 4.15789063 -3.4265625 4.51109375 -4.25 4.875 C-5.03890625 5.22304688 -5.8278125 5.57109375 -6.640625 5.9296875 C-8.78868608 6.90413905 -10.89829202 7.92986429 -13 9 C-13 8.34 -13 7.68 -13 7 C-14.65 7 -16.3 7 -18 7 C-15.65476784 4.32520907 -13.41711208 3.11833777 -10.125 1.8125 C-9.28195313 1.46832031 -8.43890625 1.12414063 -7.5703125 0.76953125 C-4.90790649 -0.02757207 -2.7621015 -0.14355008 0 0 Z " fill="#108379" transform="translate(108,44)"/>
<path d="M0 0 C0.66 0.33 1.32 0.66 2 1 C-0.42190937 4.63286406 -1.94556779 5.43456433 -6 7 C-8.97300239 7.33692167 -11.88809478 7.28621975 -14.875 7.1875 C-15.65875 7.17396484 -16.4425 7.16042969 -17.25 7.14648438 C-19.16696782 7.11141789 -21.08357751 7.05762072 -23 7 C-23.33 6.01 -23.66 5.02 -24 4 C-22.83984375 4.03480469 -22.83984375 4.03480469 -21.65625 4.0703125 C-14.47540184 4.19473314 -8.17057945 4.08528973 -1.625 0.8125 C-1.08875 0.544375 -0.5525 0.27625 0 0 Z " fill="#0F8A84" transform="translate(132,104)"/>
<path d="M0 0 C0.66 0 1.32 0 2 0 C2.31985731 6.71700347 1.4793824 11.75726932 -1 18 C-1.33 18 -1.66 18 -2 18 C-2 16.35 -2 14.7 -2 13 C-3.98 13.99 -3.98 13.99 -6 15 C-5.71382812 14.45859375 -5.42765625 13.9171875 -5.1328125 13.359375 C-3.8592283 10.70680653 -2.86453042 8.02068518 -1.875 5.25 C-1.34519531 3.77273437 -1.34519531 3.77273437 -0.8046875 2.265625 C-0.53914062 1.51796875 -0.27359375 0.7703125 0 0 Z " fill="#0E817A" transform="translate(148,82)"/>
<path d="M0 0 C0.99 0.33 1.98 0.66 3 1 C1.70984254 2.62619848 0.41782303 4.25091983 -0.875 5.875 C-1.59429687 6.77992187 -2.31359375 7.68484375 -3.0546875 8.6171875 C-5 11 -5 11 -7 13 C-7 11.68 -7 10.36 -7 9 C-8.98 10.32 -10.96 11.64 -13 13 C-11.44138225 8.98817324 -8.84535603 6.88615589 -5.5625 4.1875 C-4.59441406 3.37667969 -3.62632813 2.56585938 -2.62890625 1.73046875 C-1.32759766 0.87388672 -1.32759766 0.87388672 0 0 Z " fill="#0E6D67" transform="translate(78,53)"/>
<path d="M0 0 C0.99 0.33 1.98 0.66 3 1 C2.5359375 2.11375 2.5359375 2.11375 2.0625 3.25 C0.59001036 8.44702225 0.33050945 13.62487263 0 19 C0.66 19 1.32 19 2 19 C2.66 22.3 3.32 25.6 4 29 C3.01 28.67 2.02 28.34 1 28 C1 26.35 1 24.7 1 23 C0.34 23 -0.32 23 -1 23 C-1.02887512 19.35418313 -1.04675585 15.70839537 -1.0625 12.0625 C-1.07087891 11.02158203 -1.07925781 9.98066406 -1.08789062 8.90820312 C-1.09272461 7.42416992 -1.09272461 7.42416992 -1.09765625 5.91015625 C-1.10289307 4.99371338 -1.10812988 4.07727051 -1.11352539 3.13305664 C-1 1 -1 1 0 0 Z " fill="#0C8B81" transform="translate(84,63)"/>
<path d="M0 0 C0.90492187 0.30744141 0.90492187 0.30744141 1.828125 0.62109375 C3.02695313 1.02521484 3.02695313 1.02521484 4.25 1.4375 C5.03890625 1.70433594 5.8278125 1.97117187 6.640625 2.24609375 C10.46623838 3.46851657 13.73147044 4.12351622 17.765625 4.09765625 C19.09980469 4.09282227 19.09980469 4.09282227 20.4609375 4.08789062 C21.84152344 4.07532227 21.84152344 4.07532227 23.25 4.0625 C24.65378906 4.05573242 24.65378906 4.05573242 26.0859375 4.04882812 C28.39069041 4.03706918 30.69531227 4.02063426 33 4 C30.64440638 6.35559362 30.1910056 6.25565311 27 6.265625 C26.19941162 6.26981445 25.39882324 6.27400391 24.57397461 6.27832031 C23.72456299 6.26897461 22.87515137 6.25962891 22 6.25 C21.14092041 6.24323242 20.28184082 6.23646484 19.39672852 6.22949219 C6.17103237 6.01425709 6.17103237 6.01425709 2 4 C0.75390625 1.921875 0.75390625 1.921875 0 0 Z " fill="#045B57" transform="translate(89,124)"/>
<path d="M0 0 C4.875 4.625 4.875 4.625 6 8 C5.01 8 4.02 8 3 8 C3.02320313 9.20398438 3.04640625 10.40796875 3.0703125 11.6484375 C3.08906863 13.22395215 3.10726899 14.79947348 3.125 16.375 C3.14175781 17.1690625 3.15851563 17.963125 3.17578125 18.78125 C3.19335473 20.85492015 3.10335168 22.92883241 3 25 C2.34 25.66 1.68 26.32 1 27 C1.00523682 26.43079834 1.01047363 25.86159668 1.01586914 25.27514648 C1.03682887 22.66260917 1.04972004 20.05008963 1.0625 17.4375 C1.07087891 16.54224609 1.07925781 15.64699219 1.08789062 14.72460938 C1.10629571 9.70002057 0.86266398 4.95182709 0 0 Z " fill="#0C6F69" transform="translate(152,69)"/>
<path d="M0 0 C0.33 0 0.66 0 1 0 C1.19335938 1.03640625 1.38671875 2.0728125 1.5859375 3.140625 C1.84864867 4.51047609 2.11168671 5.88026452 2.375 7.25 C2.50132813 7.93191406 2.62765625 8.61382812 2.7578125 9.31640625 C3.44643046 12.86278873 4.32118263 15.81603602 6 19 C6.125 22.25 6.125 22.25 6 25 C0.1449005 17.94763926 -0.51813655 8.84670181 0 0 Z " fill="#066D67" transform="translate(71,79)"/>
<path d="M0 0 C0.598125 0.226875 1.19625 0.45375 1.8125 0.6875 C1.9375 3.5625 1.9375 3.5625 1.8125 6.6875 C1.1525 7.3475 0.4925 8.0075 -0.1875 8.6875 C-2.70320636 7.71367818 -3.92694098 7.22598865 -5.125 4.75 C-5.1875 2.6875 -5.1875 2.6875 -4 0.875 C-2.1875 -0.3125 -2.1875 -0.3125 0 0 Z " fill="#0CA49F" transform="translate(141.1875,82.3125)"/>
<path d="M0 0 C3.59634744 3.49359465 6.83451967 7.11098131 10 11 C7.03 10.67 4.06 10.34 1 10 C-0.1577506 6.52674819 -0.06866652 3.63932552 0 0 Z " fill="#0C7571" transform="translate(73,109)"/>
<path d="M0 0 C1 3 1 3 1 5 C-1.18771713 7.32444946 -2.87166826 8.8623477 -6.11328125 9.2578125 C-8.07738938 9.25083521 -10.0403779 9.13285574 -12 9 C-9.6760567 7.21235131 -7.32419348 5.5539677 -4.875 3.9375 C-2.01766045 2.14513434 -2.01766045 2.14513434 0 0 Z " fill="#098078" transform="translate(136,83)"/>
<path d="M0 0 C0.79390673 2.78883181 1.1108375 5.22163719 1.0625 8.1171875 C1.05476563 8.88933594 1.04703125 9.66148438 1.0390625 10.45703125 C1.01314701 12.06119996 0.98710658 13.66536666 0.9609375 15.26953125 C0.91728827 19.64172869 1.11350208 23.69217417 2 28 C-0.01171875 26.66015625 -0.01171875 26.66015625 -2 24 C-2.39806043 20.45133363 -2.097836 16.98861443 -1.8125 13.4375 C-1.75513672 12.47908203 -1.69777344 11.52066406 -1.63867188 10.53320312 C-1.18362097 3.55086291 -1.18362097 3.55086291 0 0 Z " fill="#004E4B" transform="translate(55,84)"/>
<path d="M0 0 C4.75 1.875 4.75 1.875 7 3 C7 3.66 7 4.32 7 5 C7.66 5 8.32 5 9 5 C9.66 6.32 10.32 7.64 11 9 C10.34 9.66 9.68 10.32 9 11 C7.68141572 9.73548068 6.37032369 8.46314525 5.0625 7.1875 C4.33160156 6.47980469 3.60070312 5.77210937 2.84765625 5.04296875 C1 3 1 3 0 0 Z " fill="#0A8680" transform="translate(77,104)"/>
<path d="M0 0 C0.66 0.33 1.32 0.66 2 1 C1.79503906 1.83402344 1.59007813 2.66804688 1.37890625 3.52734375 C-0.17793905 10.03033872 -1.43529092 16.33643284 -2 23 C-2.33 23 -2.66 23 -3 23 C-3.25301205 6.63855422 -3.25301205 6.63855422 -2 1 C-1.34 0.67 -0.68 0.34 0 0 Z " fill="#0C7370" transform="translate(69,67)"/>
<path d="M0 0 C1.60540659 0.78914921 3.20928016 1.58141765 4.8125 2.375 C5.70582031 2.81585938 6.59914063 3.25671875 7.51953125 3.7109375 C10 5 10 5 13 7 C6.25 8.125 6.25 8.125 4 7 C4 6.34 4 5.68 4 5 C3.01 4.67 2.02 4.34 1 4 C0.3125 1.9375 0.3125 1.9375 0 0 Z " fill="#09817A" transform="translate(95,101)"/>
<path d="M0 0 C0.99 4.95 1.98 9.9 3 15 C2.34 14.67 1.68 14.34 1 14 C1 13.34 1 12.68 1 12 C0.34 12 -0.32 12 -1 12 C-2.42258812 8.17679443 -3.24042276 5.08718695 -3 1 C-1 0 -1 0 0 0 Z " fill="#07746A" transform="translate(68,90)"/>
<path d="M0 0 C0.66 0 1.32 0 2 0 C2.55353075 13.6332574 2.55353075 13.6332574 -1 20 C-2.6415049 16.7169902 -1.51888624 13.57454967 -1 10 C-0.34 10 0.32 10 1 10 C0.835 8.906875 0.67 7.81375 0.5 6.6875 C0 3 0 3 0 0 Z " fill="#086D68" transform="translate(144,71)"/>
<path d="M0 0 C2.95929119 2.75520215 5.03681826 5.46627288 7 9 C6.01 9.66 5.02 10.32 4 11 C1.9656541 9.58480285 1.09589607 8.45017877 0.578125 6.01953125 C0.33726048 4.01823046 0.16467259 2.0090056 0 0 Z " fill="#08807B" transform="translate(88,92)"/>
<path d="M0 0 C0 0.99 0 1.98 0 3 C-1.65614657 3.38218767 -3.32457024 3.71395102 -5 4 C-5.33 3.67 -5.66 3.34 -6 3 C-9.02019764 3.25335353 -9.02019764 3.25335353 -12 4 C-12.33 4.66 -12.66 5.32 -13 6 C-13.66 5.34 -14.32 4.68 -15 4 C-13.44219668 3.32243118 -11.87849904 2.65840543 -10.3125 2 C-9.44238281 1.62875 -8.57226562 1.2575 -7.67578125 0.875 C-4.9427998 -0.01870488 -2.85299066 -0.16449676 0 0 Z " fill="#08504C" transform="translate(108,44)"/>
<path d="M0 0 C0.66 0 1.32 0 2 0 C1.67 2.97 1.34 5.94 1 9 C0.01 8.67 -0.98 8.34 -2 8 C-2.33 8.66 -2.66 9.32 -3 10 C-2.25 3.375 -2.25 3.375 0 0 Z " fill="#116963" transform="translate(48,84)"/>
<path d="M0 0 C0.99 0 1.98 0 3 0 C3.33 0.99 3.66 1.98 4 3 C3.01 3 2.02 3 1 3 C1.66 6.3 2.32 9.6 3 13 C2.01 13.33 1.02 13.66 0 14 C0 9.38 0 4.76 0 0 Z " fill="#10A79E" transform="translate(155,77)"/>
<path d="M0 0 C0.66 0.33 1.32 0.66 2 1 C-0.38397465 4.57596197 -1.99060398 5.53502838 -6 7 C-9.375 6.1875 -9.375 6.1875 -12 5 C-12 4.67 -12 4.34 -12 4 C-10.7625 3.71125 -9.525 3.4225 -8.25 3.125 C-5.82080792 2.52843163 -3.87344411 1.93672206 -1.625 0.8125 C-1.08875 0.544375 -0.5525 0.27625 0 0 Z " fill="#067D74" transform="translate(132,104)"/>
<path d="M0 0 C0.66 0 1.32 0 2 0 C2.05447047 1.41623216 2.09300508 2.83308191 2.125 4.25 C2.14820313 5.03890625 2.17140625 5.8278125 2.1953125 6.640625 C1.9828378 9.20731941 1.28654105 10.7916067 0 13 C-0.144375 12.21625 -0.28875 11.4325 -0.4375 10.625 C-0.87798925 8.03578982 -0.87798925 8.03578982 -2 6 C-1.39421747 3.98072489 -0.73080266 1.97746603 0 0 Z " fill="#13615E" transform="translate(148,82)"/>
<path d="M0 0 C4.22271781 2.53363068 6.78310162 4.56620325 9 9 C6 9 6 9 4.39453125 7.5390625 C3.61142578 6.59160156 3.61142578 6.59160156 2.8125 5.625 C2.28269531 4.99851563 1.75289062 4.37203125 1.20703125 3.7265625 C0 2 0 2 0 0 Z " fill="#09726C" transform="translate(52,148)"/>
<path d="M0 0 C6.625 -0.125 6.625 -0.125 10 1 C10 1.66 10 2.32 10 3 C10.66 3.33 11.32 3.66 12 4 C10.5608866 3.71640113 9.12374482 3.42278601 7.6875 3.125 C6.88699219 2.96257812 6.08648437 2.80015625 5.26171875 2.6328125 C3 2 3 2 0 0 Z " fill="#086661" transform="translate(80,172)"/>
<path d="M0 0 C1.48199902 0.44909061 2.96055236 0.90956564 4.4375 1.375 C5.26121094 1.63023438 6.08492188 1.88546875 6.93359375 2.1484375 C9 3 9 3 10 5 C3.9453125 4.609375 3.9453125 4.609375 2 4 C0.7421875 1.953125 0.7421875 1.953125 0 0 Z " fill="#0A7D76" transform="translate(89,124)"/>
<path d="M0 0 C-2.52956528 3.0916909 -5.22454612 3.90931332 -9 5 C-9 4.01 -9 3.02 -9 2 C-5.86501708 0.14223235 -3.62528568 -0.20140476 0 0 Z " fill="#0D857F" transform="translate(139,167)"/>
<path d="M0 0 C1.65 0 3.3 0 5 0 C4.67 0.99 4.34 1.98 4 3 C0.9375 4.1875 0.9375 4.1875 -2 5 C-1.34 3.35 -0.68 1.7 0 0 Z " fill="#0B8B88" transform="translate(127,115)"/>
<path d="M0 0 C-1.0625 1.5 -1.0625 1.5 -3 3 C-6.6875 3.1875 -6.6875 3.1875 -10 3 C-8.0130571 -0.97388579 -3.91761109 -0.08705802 0 0 Z " fill="#0E8882" transform="translate(133,100)"/>
<path d="M0 0 C1.31554985 0.4495045 2.62738358 0.90989716 3.9375 1.375 C5.03384766 1.75785156 5.03384766 1.75785156 6.15234375 2.1484375 C8 3 8 3 9 5 C6.03 4.67 3.06 4.34 0 4 C0 2.68 0 1.36 0 0 Z " fill="#088980" transform="translate(74,115)"/>
<path d="M0 0 C0.99 0.99 1.98 1.98 3 3 C2.1875 5.4375 2.1875 5.4375 1 8 C0.01 8.33 -0.98 8.66 -2 9 C-2.33 8.34 -2.66 7.68 -3 7 C-2.01 7 -1.02 7 0 7 C0 4.69 0 2.38 0 0 Z " fill="#068581" transform="translate(139,88)"/>
<path d="M0 0 C1.32 0 2.64 0 4 0 C4 1.65 4 3.3 4 5 C2.68 4.67 1.36 4.34 0 4 C0 2.68 0 1.36 0 0 Z " fill="#0A8A83" transform="translate(60,155)"/>
<path d="M0 0 C0 1.65 0 3.3 0 5 C-1.65 5 -3.3 5 -5 5 C-3.33333333 0 -3.33333333 0 0 0 Z " fill="#08A7A2" transform="translate(145,97)"/>
<path d="M0 0 C1.32 0.33 2.64 0.66 4 1 C4 2.32 4 3.64 4 5 C2.68 4.67 1.36 4.34 0 4 C0 2.68 0 1.36 0 0 Z " fill="#01A9A3" transform="translate(139,82)"/>
<path d="" fill="#1A4D4D" transform="translate(0,0)"/>
<path d="" fill="#333333" transform="translate(0,0)"/>
</svg>
